<svg width="6.82666" height="6.82666" xmlns="http://www.w3.org/2000/svg">

 <g>
  <title>background</title>
  <rect fill="none" id="canvas_background" height="402" width="582" y="-1" x="-1"/>
 </g>
 <g>
  <title>Layer 1</title>
  <path fill-rule="nonzero" fill="#ffffff" id="_339085248" d="m1.60666,0.91333l2.55457,0c0.02226,0 0.0424,0.0091 0.0569,0.02378l1.22509,1.22509l0.00001,-0.00001c0.01562,0.01562 0.02342,0.0361 0.02342,0.05657l0.00001,0l0,3.4479c0,0.06792 -0.02773,0.1296 -0.0724,0.17427c-0.04466,0.04467 -0.10635,0.0724 -0.17427,0.0724l-3.61333,0c-0.06791,0 -0.1296,-0.02773 -0.17427,-0.0724c-0.04467,-0.04467 -0.07239,-0.10635 -0.07239,-0.17427l0,-4.50667c0,-0.06792 0.02772,-0.1296 0.07239,-0.17427c0.04467,-0.04467 0.10635,-0.0724 0.17427,-0.0724l0,0.00001zm2.52144,0.15999l-2.52144,0c-0.02375,0 -0.0454,0.00978 -0.06114,0.02552c-0.01575,0.01575 -0.02552,0.0374 -0.02552,0.06115l0,4.50667c0,0.02375 0.00977,0.0454 0.02552,0.06115c0.01574,0.01574 0.03739,0.02551 0.06114,0.02551l3.61333,0c0.02375,0 0.0454,-0.00977 0.06115,-0.02551c0.01574,-0.01575 0.02552,-0.0374 0.02552,-0.06115l0,-3.41478l-1.17856,-1.17856z" class="fil0"/>
  <path fill-rule="nonzero" fill="#ffffff" id="_339084912" d="m5.37944,2.29843l-1.21511,-0.00355l0,-0.07969l-0.00023,0.08c-0.04418,-0.00012 -0.0799,-0.03605 -0.07977,-0.08023c0.00001,-0.00223 0.00011,-0.00443 0.0003,-0.00661l-0.00309,-1.21482l-0.00031,0c-0.00011,-0.04418 0.03561,-0.08009 0.07979,-0.0802c0.02239,-0.00006 0.04265,0.00909 0.05721,0.02387l1.225,1.225l0,0c0.03124,0.03124 0.03124,0.08189 0,0.11313c-0.01746,0.01746 -0.04098,0.02516 -0.06379,0.0231z" class="fil0"/>
  <path fill="#ffffff" id="svg_1" d="m4.79666,4.63139l-2.76667,0c-0.06792,0 -0.1296,0.02772 -0.17427,0.07239c-0.04467,0.04467 -0.0724,0.10636 -0.0724,0.17428l0,0.87528l0.16,0l2.94,0l0.16,0l0,-0.87528c0,-0.06792 -0.02772,-0.12961 -0.07239,-0.17428c-0.04467,-0.04467 -0.10635,-0.07239 -0.17427,-0.07239zm-2.20102,0.89178c-0.0563,-0.05983 -0.08452,-0.14159 -0.08452,-0.24513c0,-0.10968 0.02838,-0.19482 0.08498,-0.25556c0.05661,-0.06059 0.131,-0.09097 0.22335,-0.09097c0.08053,0 0.14603,0.02378 0.19635,0.07149c0.03006,0.02807 0.05246,0.06856 0.06749,0.12134l-0.13177,0.03144c-0.00767,-0.03421 -0.02393,-0.0612 -0.04878,-0.081c-0.0247,-0.01978 -0.05476,-0.0296 -0.09004,-0.0296c-0.04878,0 -0.08852,0.01749 -0.11889,0.05262c-0.03037,0.03497 -0.04555,0.09173 -0.04555,0.17027c0,0.08329 0.01487,0.14266 0.04494,0.17794c0.02991,0.03544 0.06887,0.05308 0.11674,0.05308c0.03543,0 0.0658,-0.0112 0.09127,-0.03375c0.02546,-0.0224 0.04371,-0.05783 0.05492,-0.106l0.12885,0.0408c-0.01979,0.07195 -0.05262,0.12533 -0.09864,0.16031c-0.04586,0.03482 -0.10431,0.0523 -0.17503,0.0523c-0.08743,0 -0.15937,-0.02991 -0.21567,-0.08958zm0.56987,-0.13591l0.12947,-0.01273c0.00767,0.04356 0.02347,0.07547 0.0474,0.09587c0.02378,0.02025 0.05584,0.03053 0.09633,0.03053c0.0428,0 0.07517,-0.00905 0.0968,-0.02731c0.02178,-0.0181 0.03267,-0.03927 0.03267,-0.0635c0,-0.01565 -0.0046,-0.02884 -0.0138,-0.03973c-0.00905,-0.01105 -0.025,-0.02056 -0.04786,-0.02854c-0.0155,-0.00552 -0.05109,-0.01503 -0.10646,-0.02884c-0.07133,-0.01763 -0.12134,-0.03942 -0.15002,-0.06519c-0.0405,-0.0362 -0.06075,-0.08038 -0.06075,-0.13253c0,-0.0336 0.00951,-0.06489 0.02853,-0.09419c0.01902,-0.02915 0.04648,-0.05139 0.08222,-0.06673c0.0359,-0.01519 0.079,-0.02286 0.12963,-0.02286c0.08283,0 0.14496,0.01811 0.18683,0.05431c0.04173,0.03635 0.06366,0.08467 0.06581,0.14526l-0.13299,0.00584c-0.00568,-0.03391 -0.01795,-0.0583 -0.03667,-0.07302c-0.01871,-0.01488 -0.04678,-0.02225 -0.08421,-0.02225c-0.03866,0 -0.06903,0.00783 -0.09081,0.02378c-0.01412,0.01012 -0.02117,0.02378 -0.02117,0.0408c0,0.01565 0.00659,0.029 0.01979,0.04004c0.01672,0.01411 0.05752,0.02884 0.12226,0.04403c0.06473,0.01534 0.11259,0.03114 0.14357,0.04739c0.03099,0.01642 0.05523,0.03866 0.07287,0.06704c0.01748,0.02838 0.02623,0.06335 0.02623,0.10493c0,0.03773 -0.01043,0.07317 -0.03145,0.106c-0.02101,0.03298 -0.05062,0.05752 -0.08897,0.07347c-0.03835,0.01611 -0.08621,0.02408 -0.14342,0.02408c-0.0833,0 -0.14727,-0.01917 -0.19191,-0.05767c-0.04463,-0.03851 -0.07133,-0.09465 -0.07992,-0.16828zm0.81562,0.2143l-0.23546,-0.65885l0.14434,0l0.16659,0.48765l0.16138,-0.48765l0.14113,0l-0.23593,0.65885l-0.14205,0z" class="fil1"/>
  <rect x="0.013344" y="0.013344" fill="none" id="svg_2" width="6.82666" height="6.82666" class="fil2"/>
 </g>
</svg>